<?xml version="1.0" encoding="UTF-8"?>
<svg id="Layer_2" xmlns="http://www.w3.org/2000/svg" viewBox="0 0 40 40">
  <defs>
    <style>
      .cls-1 {
        fill: none;
      }
    </style>
  </defs>
  <g id="Layer_1-2" data-name="Layer_1">
    <g id="arrowin_x5F__x5F_toright">
      <rect id="coid" class="cls-1" width="40" height="40"/>
      <path d="M8,18.32l5.31-5.31c.68-.68,1.61-.51,2.29.18h0c.68.69.86,1.62.18,2.3,0,0-2.3,1.99-2.14,2.14.38.38,17.49,0,17.49,0,.96,0,1.18.78,1.18,1.75h0c0,.96-.22,1.75-1.18,1.75,0,0-17.03-.45-17.49,0-.17.17,2.15,2.15,2.15,2.15.68.68.5,1.61-.18,2.29h0c-.68.69-1.61.86-2.29.18l-5.31-5.31c-.59-.59-.59-1.54,0-2.12Z"/>
    </g>
  </g>
</svg>