<?xml version="1.0" encoding="UTF-8" standalone="no"?>
<svg
   id="Layer_2"
   viewBox="0 0 40 40"
   version="1.1"
   sodipodi:docname="arrow accent.svg"
   inkscape:version="1.4.2 (2aeb623e1d, 2025-05-12)"
   xmlns:inkscape="http://www.inkscape.org/namespaces/inkscape"
   xmlns:sodipodi="http://sodipodi.sourceforge.net/DTD/sodipodi-0.dtd"
   xmlns="http://www.w3.org/2000/svg"
   xmlns:svg="http://www.w3.org/2000/svg">
  <sodipodi:namedview
     id="namedview1"
     pagecolor="#ffffff"
     bordercolor="#000000"
     borderopacity="0.25"
     inkscape:showpageshadow="2"
     inkscape:pageopacity="0.0"
     inkscape:pagecheckerboard="0"
     inkscape:deskcolor="#d1d1d1"
     inkscape:zoom="19.25"
     inkscape:cx="20"
     inkscape:cy="19.974026"
     inkscape:window-width="1854"
     inkscape:window-height="1011"
     inkscape:window-x="0"
     inkscape:window-y="0"
     inkscape:window-maximized="1"
     inkscape:current-layer="Layer_2" />
  <defs
     id="defs1">
    <style
       id="style1">
      .cls-1, .cls-2 {
        fill: none;
      }

      .cls-2 {
        stroke: #000;
        stroke-linecap: round;
        stroke-miterlimit: 10;
        stroke-width: 3.4px;
      }
    </style>
  </defs>
  <g
     id="Layer_1-2"
     data-name="Layer_1">
    <g
       id="arrow_accent">
      <g
         id="g113">
        <path
           id="line112"
           style="baseline-shift:baseline;display:inline;overflow:visible;vector-effect:none;stroke-linecap:round;stroke-miterlimit:10;enable-background:accumulate;stop-color:#000000;stop-opacity:1;opacity:1"
           d="M 17.597656 11.302734 A 1.7 1.7 0 0 0 17.162109 11.386719 A 1.7 1.7 0 0 0 16.179688 12.240234 C 14.801331 14.99695 12.953258 17.091387 10.378906 18.511719 L 7.7617188 19.955078 L 10.339844 21.466797 C 12.971618 23.009561 14.808088 25.016566 16.179688 27.759766 A 1.7 1.7 0 0 0 18.460938 28.521484 A 1.7 1.7 0 0 0 19.220703 26.240234 C 18.350321 24.49947 17.201636 23.010602 15.857422 21.699219 L 28.300781 21.699219 A 1.7 1.7 0 0 0 30 20 A 1.7 1.7 0 0 0 28.300781 18.300781 L 15.875 18.300781 C 17.217575 16.984285 18.358537 15.484099 19.220703 13.759766 A 1.7 1.7 0 0 0 18.460938 11.478516 A 1.7 1.7 0 0 0 17.597656 11.302734 z " />
      </g>
      <rect
         id="void-35"
         class="cls-1"
         width="40"
         height="40" />
    </g>
  </g>
</svg>
