<?xml version="1.0" encoding="UTF-8"?>
<svg id="Layer_2" xmlns="http://www.w3.org/2000/svg" viewBox="0 0 40 40">
  <defs>
    <style>
      .cls-1 {
        fill: none;
      }
    </style>
  </defs>
  <g id="Layer_1-2" data-name="Layer_1">
    <g id="enter">
      <rect id="void" class="cls-1" width="40" height="40"/>
      <g>
        <path d="M22.26,8.66h5.74c1.93,0,3.5,1.57,3.5,3.5v17.5c0,1.93-1.57,3.5-3.5,3.5h-5.74c-.69,0-1.01-.56-1.01-1.25v-.99c0-.69.32-1.25,1.01-1.25h5.75V12.16h-5.75c-.69,0-1.01-.56-1.01-1.25v-.99c0-.69.32-1.25,1.01-1.25Z"/>
        <path d="M17.83,15.05h.11c.39,0,.77.15,1.06.41l4.7,4.29c.68.62.68,1.7,0,2.32l-4.7,4.29c-.29.27-.67.41-1.06.41h-.11c-.29,0-.55-1.4-.67-3.42v-.16c0-.19-.15-.33-.33-.33h-7.22c-.77,0-1.12-.62-1.12-1.4v-1.12c0-.77.35-1.4,1.12-1.4h7.22c.19,0,.33-.15.33-.33v-.16c.12-2.02.38-3.42.67-3.42Z"/>
      </g>
    </g>
  </g>
</svg>