<?xml version="1.0" encoding="UTF-8"?><svg version="1.1" viewBox="0 0 40 40" xmlns="http://www.w3.org/2000/svg"><path d="m20 8.99c-9.95 0-12.73 0-12.73 12.73 0 2.97 0.15 5.24 0.51 6.98 0.15 0.73 1.05 0.99 1.58 0.46l5.93-5.93c0.85-0.84 2.22-0.84 3.05 0l4.03 4.03c0.36 0.36 0.95 0.36 1.33 0l0.93-0.93c0.62-0.62 1.6-0.62 2.2 0l3.64 3.64c0.5 0.5 1.37 0.29 1.56-0.4 0.51-1.84 0.72-4.37 0.72-7.86 0-12.73-2.77-12.73-12.73-12.73h-0.02zm3.16 10.42c-1.32 0-2.38-1.08-2.38-2.4s1.06-2.4 2.38-2.4 2.4 1.08 2.4 2.4-1.06 2.4-2.4 2.4z"/></svg>