<?xml version="1.0" encoding="UTF-8"?>
<svg version="1.1" viewBox="0 0 40 40" xmlns="http://www.w3.org/2000/svg">
 <defs>
  <style>.cls-1 {
        fill: none;
      }</style>
 </defs>
 <g transform="matrix(1.2976 0 0 1.2976 -2.6778 -7.3374)">
  <path d="m19.314 11.439c-3.5405 0-6.2412 2.8987-5.843 6.4167 0.44507 3.932 2.8906 4.8852 3.1766 6.8729 0.17725 1.2315-0.19513 3.0526-1.9758 3.7646-0.82191 0.32865-2.0437 0.22077-3.2235-0.68301-0.65024-0.49814-1.0617-1.5025-0.48977-2.3967 0.81486-1.2739 2.1544-0.04312 1.9594-0.36247-0.2368-0.38786-1.2474-0.87372-2.1842-0.3708-0.93677 0.50292-1.256 2.1583-0.56652 3.4941 0.84704 1.6411 2.2157 2.306 3.4857 2.4452 3.2778 0.35917 6.4387-1.0806 8.6685-4.2356 1.9445-2.7513 2.8489-6.1994 2.8355-8.5283-0.02238-3.8965-2.3025-6.4167-5.843-6.4167zm0.68611 8.5615c-1.8574 0.25445-3.1938-0.92105-3.4386-2.7745-0.20463-1.5492 1.1702-2.8897 2.7329-2.8897 1.5627 0 2.6236 1.2932 2.7525 2.8505 0.11092 1.3408-0.60175 2.6157-2.0468 2.8137z" stroke-width=".75491"/>
  <path d="m12.857 25.536c0 0.23101-0.16034 0.39074-0.37435 0.37782-0.2872-0.01733-0.41248-0.18494-0.39862-0.41248 0.01258-0.20637 0.16688-0.33969 0.39862-0.32583 0.21402 0.0128 0.37435 0.15374 0.37435 0.36049z" stroke-width=".98507"/>
 </g>
</svg>
