<?xml version="1.0" encoding="UTF-8"?>
<svg id="Layer_2" xmlns="http://www.w3.org/2000/svg" viewBox="0 0 40 40">
  <defs>
    <style>
      .cls-1 {
        fill: none;
      }
    </style>
  </defs>
  <g id="Layer_1-2" data-name="Layer_1">
    <g id="fullscreening">
      <g id="grid">
        <path d="M18.67,8.36v1.89c0,.43-.17.78-.6.81-4.91.3-6.66,2.03-6.99,6.82-.03.5-.46.88-.95.88h-1.37c-.76,0-1.22-.47-1.19-1.05.35-7.5,2.76-9.85,10.44-10.16.46-.02.67.35.67.81Z"/>
        <path d="M18.67,29.75v1.89c0,.46-.21.83-.67.81-7.68-.31-10.09-2.65-10.44-10.16-.03-.57.43-1.05,1.01-1.05h1.36c.69,0,1.11.38,1.14.88.33,4.79,2.08,6.52,6.99,6.82.43.03.6.38.6.81Z"/>
        <path d="M32.44,22.3c-.35,7.56-2.78,9.88-10.6,10.16-.46.02-.67-.35-.67-.81v-1.9c0-.43.17-.78.61-.81,5.04-.28,6.82-1.98,7.15-6.82.03-.5.46-.88.95-.88h1.36c.76,0,1.22.47,1.2,1.05Z"/>
        <path d="M31.42,18.75h-1.36c-.69,0-1.11-.38-1.14-.88-.33-4.84-2.11-6.54-7.15-6.82-.43-.02-.61-.37-.61-.81v-1.9c0-.46.21-.83.67-.81,7.82.29,10.24,2.61,10.6,10.17.03.58-.43,1.05-1.01,1.05Z"/>
      </g>
      <rect id="void" class="cls-1" width="40" height="40"/>
    </g>
  </g>
</svg>