<?xml version="1.0" encoding="UTF-8"?>
<svg id="Layer_2" xmlns="http://www.w3.org/2000/svg" viewBox="0 0 40 40">
  <defs>
    <style>
      .cls-1 {
        fill: none;
      }
    </style>
  </defs>
  <g id="Layer_1-2" data-name="Layer_1">
    <g id="settin">
      <path d="M25.49,19.99h0s.01.01.01.01h-.01ZM22.75,15.25v-.02h-.01s.01.02.01.02ZM17.25,15.25h.01s-.01-.02-.01-.02v.02ZM14.51,20h0s-.01,0-.01,0h.01Z"/>
      <polygon points="17.25 15.23 17.26 15.24 17.25 15.25 17.25 15.23"/>
      <polygon points="22.75 15.23 22.75 15.25 22.74 15.24 22.75 15.23"/>
      <g>
        <polygon points="22.74 15.24 22.75 15.23 22.75 15.25 22.74 15.24"/>
        <polygon points="25.5 20 25.49 20 25.49 19.99 25.5 20"/>
        <polygon points="14.51 19.99 14.51 20 14.5 20 14.51 19.99"/>
      </g>
      <g>
        <polygon points="14.5 20 14.51 19.99 14.51 20 14.5 20"/>
        <polygon points="17.26 15.24 17.25 15.25 17.25 15.23 17.26 15.24"/>
        <polygon points="25.5 20 25.49 20 25.49 19.99 25.5 20"/>
      </g>
      <g>
        <path d="M31.33,23.37s-1.24-.44-1.4-.81c-.33-.78-.33-4.34,0-5.12.16-.37,1.41-.81,1.41-.81,1.31-.76,1.55-2.32.79-3.63-.76-1.32-2.23-1.89-3.54-1.13,0,0-1.01.87-1.42.82-1.69-.22-3.36-1.16-4.42-2.56-.25-.32,0-1.63,0-1.63,0-.76-.31-1.39-.81-1.83-.49-.43-1.18-.68-1.94-.68-1.52,0-2.75.99-2.75,2.51,0,0,.25,1.31,0,1.63-1.06,1.4-2.73,2.34-4.42,2.56-.41.05-1.42-.82-1.42-.82-1.31-.76-2.78-.19-3.54,1.13-.76,1.31-.52,2.87.79,3.63,0,0,1.25.44,1.41.81.33.78.33,4.34,0,5.12-.16.37-1.4.81-1.4.81-.83.48-1.23,1.26-1.23,2.11,0,.5.15,1.03.43,1.52.76,1.32,2.23,1.89,3.55,1.13,0,0,1.01-.87,1.42-.82,1.69.22,3.35,1.16,4.41,2.56.25.32,0,1.63,0,1.63,0,1.52,1.23,2.5,2.75,2.5s2.75-.98,2.75-2.5c0,0-.25-1.31,0-1.63,1.06-1.4,2.72-2.34,4.41-2.56.41-.05,1.42.82,1.42.82.4.23.82.34,1.23.34.92,0,1.79-.55,2.32-1.47.76-1.31.52-2.87-.8-3.63ZM20,24.75c-1.64,0-3.08-.83-3.94-2.09l-.25-.42c-.36-.66-.56-1.43-.56-2.24s.21-1.59.57-2.26c.81-1.48,2.38-2.49,4.18-2.49s3.37,1.01,4.18,2.49c.36.67.57,1.44.57,2.26s-.2,1.58-.56,2.24l-.25.42c-.86,1.26-2.3,2.09-3.94,2.09ZM25.49,19.99h.01s-.01.01-.01.01h0ZM22.75,15.25h-.01s.01-.02.01-.02v.02ZM17.26,15.24h-.01s0-.01,0-.01h.01ZM14.51,19.99h0s-.01.01-.01.01h.01Z"/>
        <polygon class="cls-1" points="14.5 20 14.51 19.99 14.51 20 14.5 20"/>
        <polygon class="cls-1" points="17.26 15.24 17.25 15.25 17.25 15.23 17.26 15.24"/>
        <polygon class="cls-1" points="22.75 15.25 22.74 15.24 22.75 15.23 22.75 15.25"/>
        <path class="cls-1" d="M24.18,17.74c.36.67.57,1.44.57,2.26s-.2,1.58-.56,2.24l-.25.42c-.86,1.26-2.3,2.09-3.94,2.09s-3.08-.83-3.94-2.09l-.25-.42c-.36-.66-.56-1.43-.56-2.24s.21-1.59.57-2.26c.81-1.48,2.38-2.49,4.18-2.49s3.37,1.01,4.18,2.49Z"/>
        <polygon class="cls-1" points="25.49 19.99 25.5 20 25.49 20 25.49 19.99"/>
        <rect class="cls-1" width="40" height="40"/>
      </g>
    </g>
  </g>
</svg>